<?xml version="1.0" encoding="UTF-8"?>
<svg id="Ebene_2" data-name="Ebene 2" xmlns="http://www.w3.org/2000/svg" viewBox="0 0 142 250.23">
  <defs>
    <style>
      .cls-1 {
        stroke-width: 0px;
      }
    </style>
  </defs>
  <g id="Ebene_1-2" data-name="Ebene 1">
    <path class="cls-1" d="M0,3.23C10.8-3.26,20.7.74,24.13,8.96c1.12,2.68,1.92,5.87,1.63,8.7-1.21,11.54-2.43,23.12-4.55,34.52-2.06,11.11-5.57,21.97-4.21,33.48,2.13,18.07,12.11,30.12,28.66,36.97,3.19,1.32,6.7,1.87,9.95,3.1,3.88,1.47,5.23-.1,5.4-3.77.69-14.63.96-29.31,2.24-43.89,1.49-17.06,3.85-34.05,5.91-51.06.12-.97.92-1.85,1.81-3.57.93,1.71,1.75,2.58,1.87,3.54,2.05,16.51,4.44,32.99,5.88,49.55,1.31,15.08,1.58,30.25,2.27,45.39.16,3.56,1.2,4.9,5.3,3.96,17.61-4.03,30.7-13.39,36.77-30.84,3.72-10.69,2.61-21.62.07-32.49-3.48-14.89-7.63-29.68-6.97-45.22.3-6.93,2.49-12.75,9.18-15.92,5.87-2.78,11.35-1.02,16.66,1.81v2c-2.29-.35-4.57-.92-6.88-1.02-7.23-.33-11.24,3.6-11.1,10.8.04,2.14.12,4.38.74,6.4,5.68,18.63,11.48,37.22,17.24,55.82v16c-.94,3.48-1.63,7.05-2.85,10.42-9.07,24.93-27.43,38.38-53.12,42.54-3.11.5-4.94,1.62-4.99,4.95-.09,5.66-.2,11.33-.38,16.99-.1,2.92,1.2,4.3,4.1,4.42,4.99.19,10.01.21,14.97.76,7.44.83,14.85,2.05,22.27,3.1.05.57.09,1.15.14,1.72-2.06.64-4.08,1.61-6.19,1.85-10.26,1.15-20.52,2.34-30.82,2.99-4.24.27-5.96,1.71-6.06,5.9-.15,6.16-.62,12.3-1.01,18.45-.21,3.24.91,4.99,4.47,5.07,6.33.14,12.68.28,18.96.93,7.12.73,14.18,2.01,21.26,3.05.02.5.04,1,.06,1.5-1.64.5-3.25,1.27-4.92,1.45-12.41,1.32-24.83,2.66-37.26,3.67-3.31.27-4.45,1.22-4.86,4.63-.9,7.58-2.46,15.09-3.74,22.63h-2c-1.3-7.7-2.78-15.38-3.8-23.12-.39-2.93-1.4-3.9-4.3-4.11-10.96-.79-21.91-1.78-32.85-2.87-3.09-.31-6.11-1.26-9.16-1.91.05-.55.09-1.11.14-1.66,1.35-.32,2.69-.81,4.07-.94,11.59-1.12,23.18-2.28,34.79-3.17,3.38-.26,5.42-.99,5.12-4.91-.5-6.47-.91-12.96-1.12-19.45-.12-3.61-1.76-4.81-5.24-5.07-10.13-.77-20.24-1.8-30.33-2.9-2.51-.27-4.96-1.2-7.43-1.83.09-.61.19-1.23.28-1.84,1.72-.29,3.44-.67,5.18-.84,10.26-1.01,20.52-2.04,30.79-2.92,2.92-.25,5.37-.6,5.26-4.36-.18-5.83,0-11.69-.65-17.47-.18-1.63-2.43-3.75-4.18-4.35-4.2-1.46-8.78-1.81-13.01-3.22-15.91-5.33-28.82-14.67-36.32-29.98C3.99,106.67,2.36,99.27,0,92.23c0-5,0-10,0-15,4.3-13.56,8.77-27.07,12.83-40.69,2.08-6.97,4.09-14.07,4.94-21.25.86-7.3-4.01-11.46-11.36-10.99-2.15.14-4.27.61-6.41.93v-2Z"/>
  </g>
</svg>