<?xml version="1.0" encoding="UTF-8"?>
<svg id="Ebene_2" data-name="Ebene 2" xmlns="http://www.w3.org/2000/svg" viewBox="0 0 169.16 197">
  <defs>
    <style>
      .cls-1 {
        stroke-width: 0px;
      }
    </style>
  </defs>
  <g id="Ebene_1-2" data-name="Ebene 1">
    <path class="cls-1" d="M169.13,9c-4.38,11.41-8.08,23.14-13.29,34.15-9.93,21-20.67,41.62-31.21,62.33-2.05,4.03-2.23,6.48,2.6,8.8,7.47,3.58,12.08,10.24,15.63,17.56.53,1.09.56,2.41.95,4.27-5.77-3.3-10.79-6.39-16.02-9.08-2.3-1.18-5.01-1.56-7.53-2.29-2.73-.79-4.22.27-5.4,2.87-3.91,8.61-7.87,17.21-12.24,25.6-1.6,3.08-13.46,34.01-17.47,43.78h-1c-8.03-18.58-16.16-37.13-24-55.79-1.59-3.78-3.59-5.28-7.76-5.29-6.77,0-13.12-2.09-18.47-6.44-5.34-4.34-7.58-10.06-6.81-17.36,6.12,7.58,13.22,12.18,24.16,9.44-1.8-4.15-3.3-8.07-5.16-11.82-12.12-24.37-24.48-48.63-36.41-73.09C4.08,25.16-.98,13.34.16,0h2c3.03,17.34,13.76,30.69,23.2,44.7,4.46,6.61,8.73,13.37,13.5,19.75,1.33,1.78,4.02,2.87,6.31,3.53,8.42,2.4,16.99,4.3,25.4,6.74,12.51,3.62,25.09,3.83,38.02,2.85,11.21-.84,18.1-5.54,23.67-15.51,7.91-14.17,18.27-26.95,26.68-40.87,3.85-6.39,5.54-14.08,8.21-21.18.67.45,1.87.86,1.91,1.35.2,2.54.09,5.09.09,7.65ZM52.82,87.47c1.11,2.63,1.46,3.68,1.97,4.65,3.67,7.06,7.63,13.98,10.94,21.2,1.76,3.85,3.64,4.13,7.36,2.89,8.47-2.81,17.02-5.54,25.73-7.34,7.03-1.45,11.87-5.77,12.6-14.16-19.67,2.38-38.86.26-58.61-7.24ZM95.93,128.18c-.32-.4-.63-.8-.95-1.2-5.82,1.97-11.67,3.89-17.44,6.01-.55.2-1.12,1.9-.85,2.54,2.3,5.33,4.8,10.57,7.82,17.09,4.27-9.15,7.84-16.8,11.41-24.45Z"/>
  </g>
</svg>