<?xml version="1.0" encoding="UTF-8"?>
<svg id="Ebene_2" data-name="Ebene 2" xmlns="http://www.w3.org/2000/svg" viewBox="0 0 200.34 243.26">
  <defs>
    <style>
      .cls-1 {
        stroke-width: 0px;
      }
    </style>
  </defs>
  <g id="Ebene_1-2" data-name="Ebene 1">
    <path class="cls-1" d="M200.34,79.26c-4.77,8.82-7.4,9.96-17.24,8.28-14.63-2.5-28.98-.09-42.87,4.12-17.49,5.3-33.64,13.56-47.01,26.31-11.7,11.16-18.54,25.12-20.58,41.07-1.41,11.04-1.52,22.25-2.38,33.37-.9,11.65-2.95,23.06-7.97,33.75-4.24,9.05-11.78,14.09-20.96,17.1h-10c-20.59-6.44-25.91-23.51-29.01-41.98-1.13-6.71-1.89-13.52-2.3-20.31-.48-7.91,3.71-12.99,10.25-13.27,6.5-.28,11.03,4.6,11.27,12.48.33,10.7,1.43,21.25,5.45,31.28,1.78,4.43,3.34,9.39,9.29,9.74,4,.24,7.82-3.69,8.96-10.53,2.01-12.11,3.84-24.3,4.73-36.53.86-11.8.44-23.82,5.31-34.81,4.42-9.95,10.05-19.35,14.94-29.1,1.42-2.83,2.88-5.99,3.02-9.06.81-16.86,3.89-33.06,12.98-47.58,6.78-10.83,16.99-17.37,29.04-20.57,11.55-3.07,23.39-5.06,35.09-7.55,1.06-.22,2.07-.65,3.71-1.18-1.25-1.01-1.91-1.68-2.7-2.16-4.62-2.85-6.6-6.93-5.58-12.28.94-4.88,5.42-8.81,10.95-9.53,6.95-.91,13.65.24,19.93,3.27,7.09,3.43,11.83,9.02,12.03,17.05.21,8.36-3.26,15.96-10.92,19.38-8.37,3.74-17.56,5.77-26.51,8.07-10.28,2.65-20.72,4.66-31.04,7.16-13.04,3.15-18.41,13.21-21.85,24.86-.42,1.43-.64,2.92-.93,4.39-.03.14.07.3.36,1.47,2.06-.93,4.08-1.65,5.92-2.7,22.62-12.89,46.88-19.42,72.96-18.68,4.81.14,9.61.85,14.41,1.37,5.06.54,6.86,4.76,9.24,8.32v5Z"/>
  </g>
</svg>