<?xml version="1.0" encoding="UTF-8"?>
<svg id="Ebene_2" data-name="Ebene 2" xmlns="http://www.w3.org/2000/svg" viewBox="0 0 175.17 206.25">
  <defs>
    <style>
      .cls-1 {
        stroke-width: 0px;
      }
    </style>
  </defs>
  <g id="Ebene_1-2" data-name="Ebene 1">
    <path class="cls-1" d="M0,41.05c1.91-5.65,5.77-8.77,11.81-8.85,10.14-.14,20.28-.44,30.4-.15,3.4.1,4.53-.68,4.5-3.92-.05-5.82.15-11.64.07-17.46C46.7,4.56,50.17.22,55.57,0c5.68-.22,9.61,3.83,9.72,10.2.09,5.66.15,11.33,0,17-.09,3.54.56,5.18,4.8,4.38,11.69-2.2,23.44-2.69,35.24-.28,5.8,1.18,9.35,4.26,9.55,9.14.28,6.79-4.49,10.34-12.17,9.25-11.13-1.58-22.18-1.51-33.23,1.15-3.41.82-4.31,2.33-4.21,5.45.14,4.52.04,9.05.04,14.71,9.78-5.99,18.58-8.89,28.12-4.13,9.4,4.69,12.05,13.51,13.33,24.16,2.36-1.8,4.01-2.96,5.54-4.25,6.96-5.84,14.01-11.31,23.92-10.68,8.19.52,15.56,6.91,16.97,15.06,1.69,9.77-1.8,18.35-6.21,26.69-2.35,4.45-4.89,8.79-6.61,13.73,2.25-1.25,4.39-2.79,6.77-3.69,10.11-3.84,21.04,1.74,25.81,12.71,3.86,8.89,2.36,17.34-1.9,25.43-8.14,15.47-19.62,27.71-36.09,34.36-20.64,8.34-43.83-7.31-41.99-28.5.44-5.04,2.76-10.36,5.56-14.68,9.21-14.26,19.17-28.03,28.53-42.19,2.91-4.4,4.92-9.41,7.12-14.24.69-1.52.63-3.38.92-5.09-.37-.32-.74-.65-1.1-.97-2.41,1.48-5.03,2.7-7.19,4.48-11.84,9.72-20.91,21.87-29.59,34.32-5.14,7.37-10.14,14.85-15.18,22.29-.53.79-.91,1.68-1.36,2.52-.52-.26-1.04-.52-1.56-.78,0-1.36-.18-2.75.03-4.08,2.63-16.41,5.44-32.79,7.91-49.22.74-4.9,1.09-9.97.72-14.9-.46-6.1-3.81-7.83-8.58-4.33-4.64,3.4-8.71,7.66-12.62,11.91-1.13,1.23-1.19,3.74-1.19,5.66.04,29.83.18,59.65.28,89.48,0,2,.14,4.02-.14,5.99-.62,4.39-4.5,7.85-8.84,8.14-4.66.31-8.49-2.21-9.6-6.95-.67-2.87-.72-5.93-.71-8.91.17-27.82.46-55.63.63-83.45.1-15.8.05-31.6.02-47.41-.01-7.38-.46-8.22-7.75-8.5-8.28-.31-16.59-.06-24.87.34-8.88.43-10.55-.33-14.4-8.29v-2ZM137.32,136.26c-.43-.09-.87-.17-1.3-.26-7.21,10.48-14.42,20.96-21.64,31.43-2.4,3.48-3.94,7.08-1.14,11.06,2.71,3.86,9.54,6.59,13.83,4.74,13.74-5.93,23.75-15.76,28.99-29.94.61-1.66-.39-3.92-.65-5.91l-1.35-.15c-3.09,4.92-7.37,7.32-12.73,4.97-7.41-3.25-5.9-9.65-4.01-15.93Z"/>
  </g>
</svg>