<?xml version="1.0" encoding="UTF-8"?>
<svg id="Ebene_2" data-name="Ebene 2" xmlns="http://www.w3.org/2000/svg" viewBox="0 0 248 204">
  <defs>
    <style>
      .cls-1 {
        stroke-width: 0px;
      }
    </style>
  </defs>
  <g id="Ebene_1-2" data-name="Ebene 1">
    <path class="cls-1" d="M123,0C123.67,0,124.33,0,125,0c1.62,12.88,3.25,25.75,4.88,38.63.52,4.11-.11,9.04,1.99,12.05,1.45,2.07,6.7,1.47,10.25,2.08,1.15.2,2.32.36,3.42.71,3.08.96,4.84-.06,6.29-3.03,4.65-9.56,9.57-19,14.44-28.45.74-1.44,1.72-2.76,2.59-4.13.4.18.79.35,1.19.53-.11,1.61-.12,3.23-.35,4.82-1.45,10.04-2.8,20.11-4.51,30.11-.57,3.32.38,5.06,3.43,6.01,1.58.49,3.32.87,4.64,1.79,4.3,3,7.5,1.77,10.84-1.78,4-4.25,8.46-8.06,12.72-12.06.35.24.7.49,1.06.73-1.89,6.11-3.57,12.29-5.74,18.29-1.17,3.22-.55,5.11,2.1,7.24,9.08,7.28,15.75,16.3,18,27.94.67,3.48,2.19,4.6,5.52,4.95,10.1,1.03,20.17,2.38,30.25,3.6v1c-10.38,1.33-20.8,2.49-31.13,4.16-1.92.31-4.05,2.38-5.12,4.2-3.01,5.11-5.21,10.72-8.35,15.74-1.74,2.79-1.73,4.57.2,7.06,4.37,5.66,8.51,11.51,12.72,17.29,2.86,3.93,5.68,7.89,8.52,11.84-.28.3-.56.6-.84.9-1.31-.84-2.65-1.63-3.92-2.53-8.96-6.35-17.95-12.65-26.82-19.13-2.48-1.81-4.5-2.17-7.18-.37-2.88,1.94-5.94,3.77-9.18,4.96-4.39,1.61-5.42,3.81-3.71,8.29,1.73,4.52,2.46,9.43,3.62,14.17-1.96-.14-3.02-.78-3.9-1.62-3.6-3.46-6.92-7.28-10.81-10.36-1.96-1.55-5-2.69-7.44-2.51-7.11.52-14.2,1.61-21.22,2.95-1.58.3-3.8,2.33-4.03,3.83-1.71,11.35-3,22.76-4.42,34.15h-2c-1.39-11.54-2.65-23.11-4.36-34.61-.2-1.36-2.8-3.05-4.51-3.37-6.36-1.18-12.79-2.1-19.24-2.58-2.15-.16-4.86.75-6.54,2.13-4.11,3.36-7.74,7.31-11.62,10.95-1.07,1-2.37,1.76-3.57,2.63.2-4.56,1.2-8.37,2.29-12.15q2.4-8.34-5.31-11.96c-1.8-.85-3.79-1.5-5.31-2.71-3.75-3-6.81-2.55-10.61.35-9.61,7.34-19.57,14.24-29.39,21.31-.34-.24-.68-.49-1.02-.73.82-1.61,1.43-3.37,2.48-4.8,6.3-8.58,12.78-17.03,18.98-25.68.97-1.36,1.74-3.91,1.13-5.19-3.15-6.52-6.73-12.83-10.3-19.13-.66-1.16-1.88-2.65-2.99-2.78-11.02-1.36-22.06-2.47-33.1-3.65v-3c10.86-1.11,21.74-2.16,32.58-3.42.93-.11,2.3-1.5,2.46-2.46,2.17-13.04,9.34-22.92,19.43-30.91,2.35-1.86,2.77-3.49,1.85-6.32-1.97-6.05-3.46-12.27-5.55-19.92,2.62,1.29,3.87,1.64,4.76,2.4,2.78,2.37,5.83,4.59,8.04,7.44,4.5,5.78,9.04,6.06,15.68,3.11,4.7-2.09,5.38-4.34,4.73-8.53-1.46-9.35-2.79-18.73-4.11-28.1-.19-1.34-.03-2.73-.03-4.1.41-.16.81-.33,1.22-.49.7.88,1.56,1.67,2.06,2.64,4.35,8.41,8.66,16.83,12.93,25.28,3.72,7.37,3.69,7.38,11.8,6.62,1.66-.15,3.33-.38,4.98-.29,3.25.18,4.14-1.37,4.48-4.45C119.06,31.66,121.07,15.83,123,0ZM194.99,103.01c-.73-1.76-1.32-3.81-2.37-5.58-4.1-6.88-10.39-11.09-17.07-15.4-12.16-7.84-25.69-10.19-39.42-12.42-2.94-.48-4.31.62-4.15,3.81.38,7.8.68,15.6.75,23.41.03,3.77,1.33,5.33,5.27,5.35,8.31.05,16.61.67,24.91.79,10.42.15,20.84.04,32.09.04ZM85.18,102.56c0-.13,0-.27,0-.4,7.66,0,15.33.04,22.99-.01,6.89-.04,7.03-.28,7.13-6.99.11-6.99.07-14.01.64-20.96.35-4.27-1.46-5.08-4.89-4.36-4.69,1-9.28,2.63-14.01,3.23-13.77,1.73-24.97,8.65-35.26,17.22-2.98,2.48-5.09,6.12-7.18,9.49-1.57,2.53-1.22,4.37,2.64,4.13,9.31-.59,18.63-.91,27.95-1.34ZM194.24,118.14c-1.3-.79-1.58-1.11-1.86-1.1-18.64.63-37.27,1.28-55.9,1.92-2.86.1-4.12,1.53-4.22,4.4-.24,7.16-.57,14.31-.97,21.46-.18,3.32,1.03,4.63,4.42,3.9,7.92-1.7,15.96-2.95,23.78-5.01,11.31-2.98,21.22-8.69,29.17-17.37,2.2-2.4,3.72-5.43,5.57-8.19ZM53.95,117.06c1.23,2.58,1.64,4.72,2.92,5.9,5.35,4.9,10.43,10.44,16.6,14.03,12.14,7.06,25.66,10.46,39.67,11.79,3.07.29,3.84-.98,3.72-3.65-.31-6.81-.67-13.61-.79-20.43-.07-4.17-1.8-5.85-6.07-5.87-12.13-.07-24.26-.41-36.39-.76-6.1-.18-12.2-.62-19.67-1.01Z"/>
  </g>
</svg>