<?xml version="1.0" encoding="UTF-8"?>
<svg id="Ebene_2" data-name="Ebene 2" xmlns="http://www.w3.org/2000/svg" viewBox="0 0 240.1 134.02">
  <defs>
    <style>
      .cls-1 {
        stroke-width: 0px;
      }
    </style>
  </defs>
  <g id="Ebene_1-2" data-name="Ebene 1">
    <path class="cls-1" d="M240.1,97.43c-.67,2.72-1.27,5.46-2.03,8.15-5.59,19.97-22.39,30.72-43.57,27.89-2.47-.33-4.95-.75-7.36-1.37-23.92-6.18-33.44-29.76-20.83-51.06,3.18-5.37,7.06-10.91,8.12-16.82,2.13-11.93-3.32-21.66-13.27-28.14-25.63-16.7-56.36-16.93-82.48-.29-15.18,9.67-18.31,29.33-8.03,41.67,6.17,7.41,8.86,16.43,7.82,26.14-1.55,14.38-10.26,23.93-25.2,28.21-24.11,6.91-44.1-2.65-51.34-24.86C.6,102.91,0,98.47,0,94.21c-.02-9.02,9.18-14.93,17.7-11.77,5.13,1.91,6.47,4.27,5.56,9.76-1.7,10.26,5.84,18.85,16.22,18.47,1-.04,2-.1,2.99-.19,12.69-1.22,16.98-9.49,9.2-19.49-17.33-22.3-13.62-57.94,16-75.57,34.49-20.53,69.67-20.62,104.1.02,22.66,13.58,31.72,38.08,23.7,61-1.84,5.25-5.05,10.09-8.11,14.82-6.45,9.96-3.11,17.62,8.61,19.13,14.71,1.89,21.6-5.42,19.64-20.55-.19-1.48.8-3.57,1.93-4.67,5.95-5.83,16.64-4.04,20.59,3.28.7,1.3,1.32,2.65,1.97,3.98v5Z"/>
  </g>
</svg>