<?xml version="1.0" encoding="UTF-8"?>
<svg id="Ebene_2" data-name="Ebene 2" xmlns="http://www.w3.org/2000/svg" viewBox="0 0 175 166">
  <defs>
    <style>
      .cls-1 {
        stroke-width: 0px;
      }
    </style>
  </defs>
  <g id="Ebene_1-2" data-name="Ebene 1">
    <path class="cls-1" d="M175,49c-4.21,3.42-8.04,7.51-12.69,10.14-13.34,7.53-23.67-.53-28.97-10.51-3.05-5.74-1.56-11.37,3.32-15.82,1.72-1.57,4.09-2.59,5.37-4.42,1.68-2.41,4-5.76,3.4-7.98-.62-2.26-4.33-4.95-6.89-5.18-7.55-.68-15.2-.24-23.04-.24-.16,1.43-.4,2.55-.4,3.67.07,40.65.25,81.29.14,121.94-.01,5.39,1.06,9.72,5.29,13.16,1.34,1.09,2.36,2.59,4.21,4.67h-35.11c0-.66-.13-1.15.02-1.25,7.86-5.57,9.24-13.17,9.14-22.5-.41-38.64.03-77.29.14-115.94,0-.98-.09-1.96-.17-3.41h-52.01c-.15,1.04-.45,2.16-.44,3.27.16,48.48.34,96.95.53,145.43,0,.66.11,1.32.17,1.99h-2c-6.78-7.77-13.53-15.57-20.35-23.31-4.06-4.61-4.78-9.71-2.53-15.32,1.36-3.4,2.6-6.86,4.24-10.12,3.07-6.11,3.87-12.49,3.82-19.29-.19-25.8-.03-51.6,0-77.41,0-1.75,0-3.49,0-5.55H0c0-.33,0-.67,0-1C4.33,9.33,8.67,4.67,13,0c45,0,90,0,135,0,.56.32,1.08.79,1.67.93,6.89,1.67,11.74,5.59,13.16,12.72,1.47,7.41-.49,13.83-6.64,18.65-1.7,1.33-3.38,2.7-5.02,4.11-4.05,3.5-4.51,6.08-1.8,9.82,2.94,4.06,5.84,4.66,10.28,1.9,2.11-1.31,4.1-2.85,6.02-4.43,3.24-2.68,6.32-3.33,9.32.3v5Z"/>
  </g>
</svg>