<?xml version="1.0" encoding="UTF-8"?>
<svg id="Ebene_2" xmlns="http://www.w3.org/2000/svg" viewBox="0 0 356.052 450.606">
    <defs>
        <style>
            path {
                fill: #4c4f69;
            }
            @media (prefers-color-scheme: dark) {
                path {
                    fill: #cdd6f4;
                }
            }
        </style>
    </defs>
    <g id="Ebene_10">
        <path class="cls-1"
              d="M233.847,324.446c-.43-15.61-1-31.15-5.19-46.34-.36-1.39-.75-2.75-1.18-4.11-.08-.26-.36-.4-.76-.86-3.83,10.74-7.16,21.45-11.42,31.76-4.26,10.24-9.42,20.09-14.75,31.3-4.62-5.01-8.42-8.63-11.61-12.75-3.83-4.94-8.45-8.34-14.36-10.31-7.05-2.29-13.96-4.91-20.98-7.24-1.58-.5-3.55-.82-5.05-.32-.82.27-1.64.46-2.45.59v12.19c2.5.35,5.03.93,7.6,1.8,3.66,1.21,7.49,1.89,11.14,3.18,8.78,3.15,17.37,10.64,11.64,22.74-1.86,3.87-4.37,6.02-8.74,4.95-5.98-1.51-11.96-2.94-17.8-4.73-1.28-.39-2.56-.71-3.84-.95v104.18c12.99-4.71,24.47-11.55,32.46-23.91-.4,2.08-.72,4.15-1.22,6.2-.5,2.04-1.25,4.01-2.11,6.8,9.7-3.51,17.08-9.06,23.38-16.15,6.38-7.2,10.1-15.76,13.22-24.96v16.83c5.55-2.4,9.38-6.34,11.56-11.42,2.19-5.2,3.84-10.78,4.8-16.33,1-5.45.86-11.11,1.26-17.09,1.89,1.36,3.47,2.69,5.3,3.69,1.82,1.01,3.9,1.65,5.8,2.4.36-.5.68-.79.64-.93-6.52-16.11-6.91-33.2-7.34-50.21ZM110.797,325.806c8.87-4.02,17.89-7.36,27.3-7.81v-11.91c-1.59-.13-3.17-.22-4.74-.12-6.55.43-13.07,2.48-19.44,4.34-9.99,2.93-19.27,6.95-25.03,16.61-1.9,3.12-5.34,5.34-8.53,8.42-12.17-19.91-20.3-40.79-27.32-62.63-1.26,5.98-3.15,11.89-3.69,17.94-1.43,16.9-2.4,33.88-3.4,50.81-.68,11.46-2.44,22.71-6.84,33.42.25.35.54.68.82,1.03,3.69-2,7.41-3.97,11.35-6.08.68,16.54,0,33.77,17.23,44.9v-17.29c.36-.15.68-.29,1.04-.43,4.51,19.98,16.33,33.59,35.49,41.68-1.19-4.62-2.22-8.66-3.26-12.71.32-.14.64-.29.93-.43,1.04,1.54,2.04,3.11,3.15,4.58,8.24,10.82,19.63,16.74,32.24,20.48v-105.74c-2.52.17-5.03.65-7.57,1.43-5.44,1.68-10.95,3.26-16.54,4.51-5.95,1.33-8.34-.14-10.39-5.98-.75-2.15-1.14-4.4-1.64-6.48.68-5.98,3.9-10.32,8.84-12.54Z"/>
        <path class="cls-1"
              d="M138.097,232.506c-2.93.2-5.87.72-8.81,1.55-.35-.74-.63-1.32-.9-1.9-8.47-18.21-31.75-24.8-48.75-13.8-7.04,4.55-11.69,10.85-13.93,18.81-.45,1.6-4.82,2.35-6.75,2.04v5.67c1.6-.02,5.65,1.14,5.55,2.5-.07.96.03,1.95.17,2.91,2.67,17.61,17.46,29.5,35.56,28.61,16.16-.79,30.16-14.34,31.02-30.21.2-3.66-.25-7.35-.41-11.28,2.4-.62,4.82-1.04,7.25-1.25v-3.65ZM73.107,233.646c5.94-9.08,13.76-14.81,24.17-15.2,11.32-.43,19.79,5.47,26.27,15.2-16.83-12.94-33.59-12.91-50.44,0Z"/>
        <path class="cls-1"
              d="M202.903,238.777c4.752,8.216,9.315,16.107,14.048,24.291h-28.041c4.664-8.097,9.205-15.98,13.993-24.291Z"/>
        <path class="cls-1"
              d="M154.946,263.114c4.712-8.18,9.263-16.08,14.02-24.339,4.737,8.195,9.327,16.135,14.07,24.339h-28.09Z"/>
        <path class="cls-1"
              d="M172.058,233.507c4.658-8.064,9.179-15.891,13.89-24.047,4.709,8.133,9.236,15.953,13.922,24.047h-27.813Z"/>
        <path class="cls-1"
              d="M172.049,237.501h27.766c-4.642,8.066-9.133,15.869-13.852,24.07-4.72-8.165-9.248-15.998-13.914-24.07Z"/>
        <path class="cls-1"
              d="M204.915,236.499c4.396-2.552,8.542-4.959,12.933-7.508v29.888c-4.463-7.723-8.614-14.906-12.933-22.38Z"/>
        <path class="cls-1"
              d="M187.594,281.611c0-4.937-.032-9.374.055-13.809.008-.395.778-1.11,1.2-1.114,7.85-.067,15.7-.05,23.743.461-8.189,4.738-16.378,9.475-24.997,14.462Z"/>
        <path class="cls-1"
              d="M191.247,211.101c8.341,4.813,16.681,9.626,25.296,14.596-4.405,2.572-8.561,4.999-12.984,7.582-4.252-7.339-8.445-14.578-12.638-21.816.109-.121.218-.242.327-.363Z"/>
        <path class="cls-1"
              d="M159.419,266.699c1.602,0,3.203,0,4.805,0,5.942,0,11.884.006,17.827-.001,1.079-.001,2.071-.107,2.044,1.529-.072,4.223-.024,8.448-.024,13.197-8.477-4.88-16.617-9.566-24.756-14.252.035-.158.07-.315.105-.473Z"/>
        <path class="cls-1"
              d="M168.376,233.289c-4.376-2.561-8.464-4.954-12.942-7.575,8.616-4.96,16.903-9.73,25.191-14.5.103.105.206.211.309.316-4.141,7.175-8.282,14.349-12.558,21.759Z"/>
        <path class="cls-1"
              d="M153.878,257.678v-28.967c4.379,2.523,8.467,4.877,12.842,7.398-4.209,7.314-8.342,14.495-12.474,21.676-.123-.036-.245-.071-.368-.107Z"/>
        <path class="cls-1"
              d="M355.977,39.006c-.43-3.56-2.44-6.19-5.8-7.2-6.14-1.86-12.31-3.89-18.62-4.87-26.74-4.12-50.97,1.87-71.97,19.28-8.66,7.18-15.73,15.52-21.58,24.72.4-13.68,1.67-29.06,4.9-43.11,1.08-4.69,1.78-9.44,2.68-14.16.33-1.74-.61-2.78-2.61-3.33-2.16-.59-4.28-1.31-6.47-1.79-15.7-3.42-31.76-5.14-47.88-6.47C166.317.236,143.957-.494,121.527.346c-18.9.71-37.68,2.22-56.23,5.31-7.17,1.19-14.27,2.63-20.94,5.22-2.21.86-3.38,2.14-3.15,4.1.43,3.56.61,7.17,1.51,10.65,3.63,14.08,9.13,31.37,8.13,53.37-.79,17.28-3.79,43.74-5.32,57.52-.42,3.76-.73,6.58-.86,8.01,0,.14-.83,4.32-1.37,7.08-.11-.02-.23-.05-.34-.07-1.63-.35-3.25-.7-4.88-1.03-2.67-.56-5.35-1.1-8.03-1.61-3.17-.61-6.6-.25-9.73.75-4.34,1.38-5.4,7.89-2.08,12.04,1.97,2.46,4.27,4.57,6.63,6.3,1.69,1.24,3.41,2.4,5.14,3.48-.59,1.82-1.15,3.65-1.68,5.48-4.94,16.97-8.74,34.3-16.19,50.81,1.4-1.21,3.19-2.22,4.23-3.69,5.26-7.62,10.56-15.22,15.43-23.09,3.91-6.31,7.02-13.11,10.85-19.49.55-.91,1.1-1.8,1.68-2.67,2.68,1.14,5.38,2.2,8.09,3.19-5.86,8.51-11.6,17.1-17.57,25.52-3.41,4.76-7.09,9.42-11.32,13.39-3.15,2.98-4.3,6.2-4.51,10.17-.47,8.42-.79,16.87-1.47,25.25-1.11,13.29-2.47,26.5-3.69,39.75-.11,1.22-.14,2.44-.25,4.41,5.19-5.41,9.88-10.25,14.58-15.12.39.25.75.5,1.14.76-.75,1.86-1.18,3.93-2.29,5.55-4.66,6.84-9.1,13.86-14.36,20.23-8.92,10.74-14.04,22.52-12.36,36.67.4,3.12.83,6.3,1.94,9.2,2.15,5.59,4.83,10.96,7.3,16.55,4.69-9.38,9.6-19.27,14.54-29.15,1.47,14.43-1.82,27.29-12.17,38.07,12.46-1.01,24.24-10.78,25.96-22.42,2.36-16.26,3.94-32.63,5.98-48.92,1.18-9.63,2.58-19.23,3.9-28.83.11-.86.18-1.68.25-2.58-6.12,1.79-8.77.79-12.46-5.08-6.37-10.14-9.24-21.45-10.56-33.24-.47-3.93-.75-7.98-.47-11.96.47-5.91,2.62-8.56,6.27-8.95,4.23-.46,9.85,2.87,10.92,7.41,1.69,7.2,2.72,14.58,3.87,21.92.97,6.34,1.65,12.71,3.33,19.16,1.72-8.38,3.44-16.76,5.19-25.14.47-2.4.65-4.91,1.54-7.13,3.76-9.63,4.34-19.66,4.41-29.86.04-7.54.25-15.09,1.22-22.55,27.91,9.14,52.9,12.92,76.32,12.91v105.94c0,.83,3.325,1.155,4.155,1.155s4.845-.325,4.845-1.155v-105.97c30.61-.44,47.9-1.81,72.25-7.97,2,5,2.8,6.8,2.9,10.9.1,4.1-.54,20.31,2.93,30.62,3.8,11.28,5.45,23.28,8.28,36.1.85-6.59,1.5-12.18,2.29-17.76.86-6.09,1.75-12.14,2.75-18.23.68-4.19,2.94-7.38,6.84-9.27,5.09-2.51,9.64-.9,10.39,4.65.79,5.73.57,11.71-.07,17.44-1.22,11.03-4.26,21.6-10.32,31.09-2.32,3.61-5.08,6.62-10.56,5.9.68,6.38,1.4,12.43,1.93,18.48,1.44,15.97,2.3,31.98,4.44,47.85.9,6.59,3.55,13.28,6.88,19.12,5.26,9.17,15.61,12.25,26.46,8.81-8.12-7.52-11.88-16.83-12.89-27.5,4.66,5.58,9.06,10.95,14.22,17.19,4.23-8.85,5.94-16.73,7.2-24.71,3.04-19.63-1.15-37.32-13.29-53.33-8.77-11.53-11.78-19.59-13.07-30.54,4.51,4.9,8.6,9.41,13.32,14.57-1.79-8.56-3.97-16.01-4.83-23.6-1.83-16.76-2.87-33.59-4.48-50.39-.67-7.09-1.52-14.17-2.74-21.16.59-.31,1.19-.64,1.78-.97,3.55-1.99,7-4.57,10.16-7.56,3.29-3.1,3.25-8.79.22-12.47-1.021-1.24-2.34-2.32-3.65-2.73-2.49-.78-5.1-1.61-7.62-1.37-2.34.21-4.68.44-7.02.71-1.07.11-2.14.24-3.21.37-.32.04-.63.08-.95.12-.84-3.09-2.11-7.75-2.11-7.8-.96-3.12-1.89-7.63-2.75-12.89-.11-.67-.42-3.67-.81-7.68.11.05.23.11.34.16,1.6.79,4.93,1.27,6.04-.12,1.59-2.01,7-8.4,9-10,3.04-2.43,0-5-.77-5.71s-2.97-1.78-4.48-2.64c-.44-.25-.91-.44-1.81-.86.97-.28,1.42-.5,1.89-.54,4.9-.43,9.8-.97,14.71-1.17,2.19-.08,3.98-.56,5.77-1.84,9.78-7.02,20.62-15.93,30.44-22.88.59-.42,1.14-.92,2.02-1.63-4.6-2.4-8.92-4.66-13.32-6.95.33-.23.46-.4.59-.4.75.02,1.49.13,2.24.13,6.83.01,13.66.08,20.49-.04,4.12-.07,7.75-1.47,10.92-4.27,2.5-2.21,7.6-5.25,10.31-7.2,8.13-5.86,8-4.47,16.12-10.35,2.92-2.11,4.45-4.99,4.01-8.64ZM288.637,53.786c-4.09,1.68-8.32,3.09-12.24,5.09-10.35,5.29-19.97,11.71-26.98,21.16-4.06,5.47-7.71,11.09-10.98,16.86.01.17.02.33.03.5-.02-.15-.05-.29-.07-.43.01-.02.03-.05.04-.07-.18-2.74-.32-5.35-.43-7.78,3.93-5.63,8.39-10.98,13.33-16.06,6.78-6.98,13.87-13.57,23.24-17.04,5.08-1.89,10.27-3.18,15.76-3.13-.53.45-1.12.66-1.7.9Z"/>
    </g>
</svg>